<svg width="17" height="9" viewBox="0 0 17 9" fill="none" xmlns="http://www.w3.org/2000/svg">
<path d="M15.8504 0.201779L8.96023 7.37468L2.0701 0.201779C1.94699 0.0733642 1.78173 0.00147216 1.60965 0.00147216C1.43757 0.00147216 1.27231 0.0733642 1.14921 0.201779C1.0896 0.264151 1.04224 0.338597 1.00992 0.420759C0.977589 0.502921 0.960937 0.591146 0.960937 0.680267C0.960937 0.769388 0.977589 0.857613 1.00992 0.939775C1.04224 1.02194 1.0896 1.09638 1.14921 1.15875L8.47911 8.79101C8.60783 8.92501 8.78048 9 8.96023 9C9.13999 9 9.31263 8.92501 9.44136 8.79101L16.7713 1.16023C16.8313 1.09781 16.879 1.02318 16.9116 0.940745C16.9442 0.858311 16.9609 0.769743 16.9609 0.680267C16.9609 0.590791 16.9442 0.502222 16.9116 0.419788C16.879 0.337354 16.8313 0.262725 16.7713 0.200306C16.6482 0.0718913 16.4829 -4.61121e-08 16.3108 -4.56009e-08C16.1387 -4.50897e-08 15.9735 0.0718913 15.8504 0.200306L15.8504 0.201779Z" fill="#3C4043"/>
</svg>
